<?xml version="1.0" encoding="iso-8859-1"?>
<!-- Generator: Adobe Illustrator 19.0.0, SVG Export Plug-In . SVG Version: 6.00 Build 0)  -->
<svg version="1.1" id="Capa_1" xmlns="http://www.w3.org/2000/svg" xmlns:xlink="http://www.w3.org/1999/xlink" x="0px" y="0px"
	 viewBox="0 0 512 512" style="enable-background:new 0 0 512 512;" xml:space="preserve">
<g>
	<g>
		<path d="M455.058,248.93c-1.859-1.861-4.439-2.93-7.069-2.93c-2.631,0-5.211,1.069-7.07,2.93c-1.86,1.86-2.93,4.44-2.93,7.07
			s1.069,5.21,2.93,7.069c1.859,1.86,4.439,2.931,7.07,2.931c2.63,0,5.21-1.07,7.069-2.931c1.86-1.859,2.931-4.439,2.931-7.069
			S456.919,250.79,455.058,248.93z"/>
	</g>
</g>
<g>
	<g>
		<path d="M367.999,210h-66v-66c0-5.522-4.478-10-10-10h-72c-5.522,0-10,4.478-10,10v66h-66c-5.522,0-10,4.478-10,10v72
			c0,5.522,4.478,10,10,10h66v66c0,5.522,4.477,10,10,10h72c5.522,0,10-4.478,10-10v-66h66c5.522,0,10-4.478,10-10v-72
			C377.999,214.478,373.521,210,367.999,210z M357.999,282h-66c-5.522,0-10,4.478-10,10v66h-52v-66c0-5.522-4.478-10-10-10h-66v-52
			h66c5.522,0,10-4.478,10-10v-66h52v66c0,5.522,4.478,10,10,10h66V282z"/>
	</g>
</g>
<g>
	<g>
		<path d="M187.878,446.93c-1.86-1.861-4.44-2.93-7.07-2.93c-2.639,0-5.21,1.07-7.069,2.93c-1.87,1.86-2.931,4.44-2.931,7.07
			s1.061,5.21,2.931,7.069c1.859,1.861,4.439,2.931,7.069,2.931s5.2-1.07,7.07-2.931c1.861-1.859,2.93-4.439,2.93-7.069
			S189.738,448.791,187.878,446.93z"/>
	</g>
</g>
<g>
	<g>
		<path d="M447.986,215.053c5.522,0,10-4.478,10-10V107.99c-0.008,0-0.016-0.002-0.024-0.002c-0.001-2.601-0.994-5.157-2.905-7.069
			L357.07,2.931c-1.691-1.691-3.888-2.66-6.171-2.867c-0.088-0.016-0.19-0.028-0.3-0.037c-0.036-0.002-0.071-0.009-0.107-0.011
			C350.344,0.006,350.182,0,349.999,0H84.011c-16.542,0-30,13.458-30,30v452c0,16.542,13.458,30,30,30h343.975
			c16.542,0,30-13.458,30-30V305.548c0-5.522-4.478-10-10-10c-5.522,0-10,4.478-10,10V482c0,5.514-4.486,10-10,10H84.011
			c-5.514,0-10-4.486-10-10v-18h64.731c5.522,0,10-4.478,10-10c0-5.522-4.478-10-10-10H74.011V30c0-5.514,4.486-10,10-10h255.987
			v67.99c0,16.542,13.458,30,30,30h67.987v87.063C437.986,210.575,442.463,215.053,447.986,215.053z M369.999,97.991L369.999,97.991
			c-5.514-0.001-10-4.487-10-10.001V34.145l63.846,63.846H369.999z"/>
	</g>
</g>
<g>
</g>
<g>
</g>
<g>
</g>
<g>
</g>
<g>
</g>
<g>
</g>
<g>
</g>
<g>
</g>
<g>
</g>
<g>
</g>
<g>
</g>
<g>
</g>
<g>
</g>
<g>
</g>
<g>
</g>
</svg>
