<?xml version="1.0" encoding="UTF-8" standalone="no"?>
<svg width="11px" height="12px" viewBox="0 0 11 12" version="1.1" xmlns="http://www.w3.org/2000/svg" xmlns:xlink="http://www.w3.org/1999/xlink">
    <!-- Generator: Sketch 39.1 (31720) - http://www.bohemiancoding.com/sketch -->
    <title>B</title>
    <desc>Created with Sketch.</desc>
    <defs></defs>
    <g id="Page-4" stroke="none" stroke-width="1" fill="none" fill-rule="evenodd">
        <g id="hover/selected" transform="translate(-111.000000, -235.000000)" fill="#94999E">
            <g id="Group-3" transform="translate(96.000000, 221.000000)">
                <g id="Group-16" transform="translate(7.000000, 7.000000)">
                    <path d="M8.86363636,7.09090909 L13.2596768,7.09090909 C14.1298872,7.09090909 14.7787843,7.12716731 15.2063876,7.19968484 C15.633991,7.27220236 16.0165777,7.42348666 16.3541593,7.65354226 C16.6917409,7.88359786 16.9730546,8.1899173 17.198109,8.57250977 C17.4231634,8.95510223 17.5356889,9.38394945 17.5356889,9.85906428 C17.5356889,10.3741888 17.3969075,10.8467959 17.1193404,11.2768999 C16.8417733,11.7070038 16.465438,12.0295769 15.9903232,12.2446289 C16.6604851,12.439676 17.1756019,12.7722514 17.5356889,13.2423651 C17.8957759,13.7124787 18.0758168,14.265104 18.0758168,14.9002575 C18.0758168,15.4003783 17.9595404,15.8867386 17.7269842,16.3593528 C17.494428,16.831967 17.176856,17.2095526 16.7742587,17.4921209 C16.3716614,17.7746892 15.8752989,17.9484786 15.2851563,18.0134943 C14.9150668,18.053504 14.0223644,18.0785097 12.6070224,18.0885121 L8.86363636,18.0885121 L8.86363636,7.09090909 Z M11.0841619,8.92134233 L11.0841619,11.4644442 L12.5395064,11.4644442 C13.4047155,11.4644442 13.9423374,11.4519414 14.1523881,11.4269354 C14.53248,11.3819245 14.8312977,11.2506447 15.0488503,11.0330922 C15.2664029,10.8155396 15.3751776,10.5292247 15.3751776,10.1741388 C15.3751776,9.83405666 15.2814063,9.55774402 15.093861,9.34519265 C14.9063156,9.13264128 14.6275024,9.00386209 14.257413,8.95885121 C14.0373598,8.93384516 13.4047164,8.92134233 12.3594638,8.92134233 L11.0841619,8.92134233 Z M11.0841619,13.2948775 L11.0841619,16.2355735 L13.1396484,16.2355735 C13.9398418,16.2355735 14.4474569,16.2130684 14.6625089,16.1680575 C14.9925887,16.108043 15.2613996,15.9617599 15.4689498,15.7292037 C15.6764999,15.4966475 15.7802734,15.1853269 15.7802734,14.7952326 C15.7802734,14.4651528 15.7002553,14.1850893 15.5402166,13.9550337 C15.3801779,13.7249781 15.1488755,13.5574402 14.8463024,13.4524148 C14.5437293,13.3473894 13.8873305,13.2948775 12.8770863,13.2948775 L11.0841619,13.2948775 Z" id="B"></path>
                </g>
            </g>
        </g>
    </g>
</svg>