<?xml version="1.0" encoding="UTF-8" standalone="no"?>
<svg width="20px" height="20px" viewBox="0 0 20 20" version="1.1" xmlns="http://www.w3.org/2000/svg" xmlns:xlink="http://www.w3.org/1999/xlink">
    <!-- Generator: sketchtool 3.8.3 (29802) - http://www.bohemiancoding.com/sketch -->
    <title>2B9649B7-FA07-4BD3-8E13-7138CFA21ED5</title>
    <desc>Created with sketchtool.</desc>
    <defs></defs>
    <g id="Page-1" stroke="none" stroke-width="1" fill="none" fill-rule="evenodd" fill-opacity="0.798658288">
        <g id="snowbrush-Interface-3" transform="translate(-50.000000, -866.000000)" fill="#29333E">
            <g id="navigations" transform="translate(40.000000, 856.000000)">
                <g id="centre" transform="translate(10.000000, 10.000000)">
                    <path d="M10,5.6 C7.569,5.6 5.6,7.569 5.6,10 C5.6,12.431 7.569,14.4 10,14.4 C12.431,14.4 14.4,12.431 14.4,10 C14.4,7.569 12.431,5.6 10,5.6 L10,5.6 Z M11.2,2.49426973 L11.2,4.26325641e-14 C15.7829978,0.514541387 19.4854586,4.21700224 20,8.8 L17.5057303,8.8 C16.9921668,5.56445786 14.4355421,3.00783318 11.2,2.49426973 Z M8.8,2.49426973 L8.8,4.26325641e-14 C4.21700224,0.514541387 0.514541387,4.21700224 2.66453526e-16,8.8 L2.49426973,8.8 C3.00783318,5.56445786 5.56445786,3.00783318 8.8,2.49426973 Z M2.49426973,11.2 L2.66453526e-16,11.2 C0.514541387,15.7829978 4.21700224,19.4854586 8.8,20 L8.8,17.5057303 C5.56445786,16.9921668 3.00783318,14.4355421 2.49426973,11.2 Z M11.2,17.5057303 L11.2,20 C15.7829978,19.4854586 19.4854586,15.7829978 20,11.2 L17.5057303,11.2 C16.9921668,14.4355421 14.4355421,16.9921668 11.2,17.5057303 Z"></path>
                </g>
            </g>
        </g>
    </g>
</svg>