<?xml version="1.0" encoding="UTF-8" standalone="no"?>
<svg width="40px" height="40px" viewBox="0 0 40 40" version="1.1" xmlns="http://www.w3.org/2000/svg" xmlns:xlink="http://www.w3.org/1999/xlink">
    <!-- Generator: sketchtool 40 (33762) - http://www.bohemiancoding.com/sketch -->
    <title>F5986DB8-DB98-40D7-8487-EDCFF6E3D367</title>
    <desc>Created with sketchtool.</desc>
    <defs></defs>
    <g id="Page-1" stroke="none" stroke-width="1" fill="none" fill-rule="evenodd">
        <g id="navbar" transform="translate(-145.000000, -184.000000)" fill="#FAFAFA">
            <g id="SIDE-BAR-Copy-2" transform="translate(145.000000, 184.000000)">
                <g id="property">
                    <g id="ic-style">
                        <path d="M13.9510988,29.3770394 L14.7787586,22.299636 L27.1812113,22.4022655 L28.1249244,29.4931378 C28.1249244,29.4931378 27.1824186,28.4698931 25.4664663,29.4715357 C23.8563858,30.4120675 21.8355246,28.8352697 20.3514408,29.5733381 C18.867357,30.3114065 17.8849163,29.7234849 16.5290591,29.3952125 C15.1732018,29.0669401 13.9510988,29.3770394 13.9510988,29.3770394 L13.9510988,29.3770394 L13.9510988,29.3770394 Z M23.3196372,16.9833988 C23.5139015,13.799478 23.6219046,11.2687901 23.6161611,10.7896236 C23.6060751,9.32073414 22.405953,8.12428196 20.9388985,8.11236099 C19.4709116,8.09950751 18.2901065,9.28031256 18.301095,10.7464345 C18.3068384,11.225601 18.4532187,13.7592809 18.6897801,16.933634 L16.5828493,16.929582 C15.6041963,16.9216297 14.8160604,17.7079006 14.8240127,18.6865536 L14.8439006,21.1308029 L27.2472673,21.2320771 L27.2264354,18.7854831 C27.2184981,17.8086801 26.4174642,17.0076461 25.4397437,17.0006263 L23.3196372,16.9833988 Z M21.0382089,12.173637 C21.5133008,12.173637 21.8984388,11.7821578 21.8984388,11.2992438 C21.8984388,10.8163297 21.5133008,10.4248506 21.0382089,10.4248506 C20.5631171,10.4248506 20.177979,10.8163297 20.177979,11.2992438 C20.177979,11.7821578 20.5631171,12.173637 21.0382089,12.173637 Z" id="Combined-Shape" transform="translate(21.000000, 19.000000) rotate(-315.000000) translate(-21.000000, -19.000000) "></path>
                    </g>
                </g>
            </g>
        </g>
    </g>
</svg>