<?xml version="1.0" encoding="UTF-8" standalone="no"?>
<svg width="18px" height="9px" viewBox="0 0 18 9" version="1.1" xmlns="http://www.w3.org/2000/svg" xmlns:xlink="http://www.w3.org/1999/xlink">
    <!-- Generator: Sketch 39.1 (31720) - http://www.bohemiancoding.com/sketch -->
    <title>Group 8</title>
    <desc>Created with Sketch.</desc>
    <defs></defs>
    <g id="Page-4" stroke="none" stroke-width="1" fill="none" fill-rule="evenodd">
        <g id="hover/selected" transform="translate(-225.000000, -236.000000)" fill="#94999E">
            <g id="Group-3" transform="translate(96.000000, 221.000000)">
                <g id="line" transform="translate(125.000000, 7.000000)">
                    <g id="Group-13" transform="translate(3.781760, 8.272727)">
                        <g id="Group-8">
                            <path d="M1.85409268,4.43989702 L0.529740767,4.20099432 C0.678622903,3.66778853 0.93483483,3.27308367 1.29838423,3.0168679 C1.66193364,2.76065213 2.20205608,2.63254616 2.91876776,2.63254616 C3.56969431,2.63254616 4.05441957,2.70958286 4.3729581,2.86365856 C4.69149662,3.01773426 4.91568206,3.21335553 5.04552113,3.45052823 C5.1753602,3.68770094 5.24027876,4.1230881 5.24027876,4.75670277 L5.22469815,6.46018288 C5.22469815,6.94491542 5.24806884,7.3024003 5.2948109,7.53264826 C5.34155297,7.76289622 5.42897663,8.00958675 5.55708452,8.27272727 L4.11328125,8.27272727 C4.07519512,8.17578077 4.02845376,8.03209435 3.97305575,7.84166371 C3.94881913,7.75510433 3.93150751,7.69797599 3.92112038,7.67027699 C3.67182936,7.91264326 3.40523047,8.09441523 3.1213157,8.21559837 C2.83740092,8.3367815 2.53444763,8.39737216 2.21244673,8.39737216 C1.64461719,8.39737216 1.1971119,8.24329877 0.869917436,7.93514737 C0.542722973,7.62699597 0.379128196,7.2374846 0.379128196,6.76660156 C0.379128196,6.45498779 0.453568148,6.17713634 0.602450284,5.93303888 C0.751332421,5.68894143 0.959937401,5.50197597 1.22827148,5.3721369 C1.49660557,5.24229782 1.8835202,5.12890673 2.38902699,5.03196023 C3.07111492,4.90385234 3.54372205,4.78440219 3.80686257,4.67360618 L3.80686257,4.52818714 C3.80686257,4.24773475 3.7376161,4.04778558 3.59912109,3.92833363 C3.46062608,3.80888168 3.19922067,3.74915661 2.81489702,3.74915661 C2.55521887,3.74915661 2.35267296,3.80022587 2.2072532,3.90236594 C2.06183343,4.00450601 1.94411444,4.18368125 1.85409268,4.43989702 L1.85409268,4.43989702 Z M3.80686257,5.62402344 C3.61989431,5.68634619 3.32386566,5.76078614 2.91876776,5.84734553 C2.51366985,5.93390491 2.24880211,6.01873183 2.12415661,6.10182884 C1.93372597,6.23686147 1.83851207,6.40824648 1.83851207,6.61598899 C1.83851207,6.82026913 1.91468319,6.99684762 2.0670277,7.14572976 C2.21937221,7.29461189 2.41326232,7.36905185 2.64870384,7.36905185 C2.91184436,7.36905185 3.1628628,7.28249376 3.40176669,7.109375 C3.57834783,6.97780474 3.69433566,6.8168067 3.74973366,6.62637607 C3.78781979,6.50173056 3.80686257,6.26456141 3.80686257,5.91486151 L3.80686257,5.62402344 Z M6.61656605,8.27272727 L6.61656605,0.659002131 L8.07594993,0.659002131 L8.07594993,3.40118963 C8.52605871,2.88875809 9.05925651,2.63254616 9.6755593,2.63254616 C10.3472601,2.63254616 10.902963,2.87577438 11.3426847,3.3622381 C11.7824063,3.84870183 12.0022638,4.54722556 12.0022638,5.45783026 C12.0022638,6.39959633 11.7780784,7.12495307 11.3297008,7.63392223 C10.8813232,8.14289139 10.3368729,8.39737216 9.69633345,8.39737216 C9.3812573,8.39737216 9.07051378,8.3186043 8.76409357,8.16106623 C8.45767336,8.00352815 8.19367121,7.77068691 7.97207919,7.46253551 L7.97207919,8.27272727 L6.61656605,8.27272727 Z M8.06556286,5.39550781 C8.06556286,5.96679973 8.15558326,6.38920318 8.33562678,6.66273082 C8.58838017,7.05051685 8.92422553,7.24440696 9.34317294,7.24440696 C9.66517384,7.24440696 9.93956296,7.10677961 10.1663485,6.83152077 C10.3931341,6.55626194 10.5065252,6.12260594 10.5065252,5.53053977 C10.5065252,4.90038747 10.3922685,4.44595754 10.1637518,4.16723633 C9.93523501,3.88851512 9.64266869,3.74915661 9.28604403,3.74915661 C8.93634413,3.74915661 8.64550897,3.8850528 8.41352983,4.15684925 C8.18155069,4.42864571 8.06556286,4.84152777 8.06556286,5.39550781 Z M17.9852184,4.38796165 L16.5466087,4.64763849 C16.4981354,4.36026135 16.3882066,4.14386614 16.2168191,3.99844638 C16.0454315,3.85302662 15.8229772,3.78031783 15.5494496,3.78031783 C15.1859002,3.78031783 14.8959306,3.90582705 14.6795321,4.15684925 C14.4631337,4.40787146 14.3549361,4.82767816 14.3549361,5.41628196 C14.3549361,6.07067089 14.4648648,6.53289105 14.6847257,6.80295632 C14.9045865,7.07302159 15.1997496,7.2080522 15.5702237,7.2080522 C15.8472137,7.2080522 16.0739959,7.12928435 16.2505771,6.97174627 C16.4271582,6.8142082 16.5518018,6.5432814 16.6245117,6.15895774 L18.0579279,6.40305398 C17.9090458,7.06090528 17.6234041,7.55774868 17.2009943,7.89359908 C16.7785845,8.22944948 16.2124947,8.39737216 15.5027077,8.39737216 C14.6959743,8.39737216 14.0528477,8.14289139 13.5733088,7.63392223 C13.0937698,7.12495307 12.8540039,6.42037027 12.8540039,5.5201527 C12.8540039,4.609548 13.0946354,3.9006373 13.5759055,3.39339933 C14.0571757,2.88616135 14.7080925,2.63254616 15.5286754,2.63254616 C16.2003762,2.63254616 16.7344396,2.77709816 17.1308816,3.0662065 C17.5273235,3.35531483 17.8120996,3.79589548 17.9852184,4.38796165 Z" id="Combined-Shape"></path>
                            <rect id="Rectangle-82" x="0.23630593" y="5.31818182" width="17.7272727" height="0.590909091"></rect>
                        </g>
                    </g>
                </g>
            </g>
        </g>
    </g>
</svg>