<?xml version="1.0" encoding="UTF-8" standalone="no"?>
<svg width="20px" height="20px" viewBox="0 0 20 20" version="1.1" xmlns="http://www.w3.org/2000/svg" xmlns:xlink="http://www.w3.org/1999/xlink">
    <!-- Generator: sketchtool 40 (33762) - http://www.bohemiancoding.com/sketch -->
    <title>028A908E-6763-4725-BE83-C0101F46E196</title>
    <desc>Created with sketchtool.</desc>
    <defs>
        <rect id="path-1" x="2" y="2" width="16" height="16"></rect>
        <mask id="mask-2" maskContentUnits="userSpaceOnUse" maskUnits="objectBoundingBox" x="0" y="0" width="16" height="16" fill="white">
            <use xlink:href="#path-1"></use>
        </mask>
        <linearGradient x1="50%" y1="0%" x2="50%" y2="100%" id="linearGradient-3">
            <stop stop-color="#2689F1" offset="0%"></stop>
            <stop stop-color="#1D7FE6" offset="100%"></stop>
        </linearGradient>
        <path d="M7.62800909,13.2872265 L13.1203927,7.79484293 C13.3869393,7.52829631 13.3869393,7.09268296 13.1203927,6.82613634 C12.853846,6.55958972 12.4182327,6.55958972 12.1516861,6.82613634 L6.65930251,12.3185199 C6.39275588,12.5850665 6.39275588,13.0206799 6.65930251,13.2872265 L6.65930251,13.2872265 C6.924326,13.5537731 7.36146247,13.5537731 7.62800909,13.2872265 L7.62800909,13.2872265 L7.62800909,13.2872265 Z M9.67849297,12.252542 C9.78274091,12.3981582 9.80094294,12.552048 9.80094294,12.6380939 C9.80094294,12.7406871 9.776122,12.9392546 9.60899435,13.1063822 L6.4815562,16.2338204 C6.31442855,16.400948 6.11751579,16.425769 6.01326785,16.425769 C5.91067463,16.425769 5.71210713,16.400948 5.54497948,16.2338204 L3.76614562,14.4549865 C3.59901797,14.2878589 3.57419703,14.0909461 3.57419703,13.9866982 C3.57419703,13.8824502 3.59901797,13.6855375 3.76614562,13.5184098 L6.89358377,10.3909717 C7.06071142,10.223844 7.25762418,10.1990231 7.36187212,10.1990231 C7.4346802,10.1990231 7.55382071,10.2122609 7.67461594,10.2767954 L8.62443049,9.3269808 C7.84670777,8.68494588 6.68508789,8.72796883 5.95700705,9.45439496 L2.8295689,12.5818331 C2.05681037,13.3545916 2.05681037,14.61715 2.8295689,15.3899085 L4.60840277,17.1687424 C5.3811613,17.9415009 6.64371966,17.9415009 7.41647819,17.1687424 L10.5439163,14.0413042 C11.2901992,13.2950214 11.3150201,12.0887238 10.6183792,11.3110011 L9.67849297,12.252542 L9.67849297,12.252542 L9.67849297,12.252542 Z M17.1480279,4.69869189 L15.3010932,2.85175712 C14.4987504,2.04941429 13.1878562,2.04941429 12.3855134,2.85175712 L9.13834433,6.09892615 C8.38410771,6.85316277 8.33943767,8.05925412 9.00605226,8.86846927 L9.99222952,7.882292 C9.92522445,7.75515417 9.91147981,7.6314525 9.91147981,7.5575751 C9.91147981,7.4510542 9.937251,7.24488474 10.110777,7.07135878 L13.357946,3.82418974 C13.531472,3.65066379 13.7359233,3.62489261 13.8441623,3.62489261 C13.9506832,3.62489261 14.1568527,3.65066379 14.3303786,3.82418974 L16.1773134,5.67112451 C16.3508394,5.84465048 16.3766105,6.04910186 16.3766105,6.15734083 C16.3766105,6.26386173 16.3508394,6.47003119 16.1773134,6.64355715 L12.9301444,9.89072619 C12.7566184,10.0642521 12.552167,10.0900233 12.443928,10.0900233 C12.354588,10.0900233 12.1948066,10.0711245 12.0436157,9.96288549 L11.0677469,10.9387543 C11.875244,11.6620655 13.1260054,11.6380124 13.902577,10.8614407 L17.149746,7.61427171 C17.9503708,6.81192888 17.9503708,5.49931663 17.1480279,4.69869189 L17.1480279,4.69869189 L17.1480279,4.69869189 Z" id="path-4"></path>
        <mask id="mask-5" maskContentUnits="userSpaceOnUse" maskUnits="objectBoundingBox" x="0" y="0" width="15.5" height="15.4983113" fill="white">
            <use xlink:href="#path-4"></use>
        </mask>
    </defs>
    <g id="Page-1" stroke="none" stroke-width="1" fill="none" fill-rule="evenodd">
        <g id="add-2.0" transform="translate(-48.000000, -128.000000)">
            <g id="menu-copy-7" transform="translate(28.000000, 29.000000)">
                <g id="hyperlink" transform="translate(20.000000, 99.000000)">
                    <use id="ic-hyperlink" stroke="#979797" mask="url(#mask-2)" stroke-width="2" fill="#D8D8D8" opacity="0" xlink:href="#path-1"></use>
                    <use id="Shape" stroke="#1C69DA" mask="url(#mask-5)" stroke-width="0.6" fill="url(#linearGradient-3)" xlink:href="#path-4"></use>
                </g>
            </g>
        </g>
    </g>
</svg>