<?xml version="1.0" encoding="UTF-8" standalone="no"?>
<svg width="40px" height="40px" viewBox="0 0 40 40" version="1.1" xmlns="http://www.w3.org/2000/svg" xmlns:xlink="http://www.w3.org/1999/xlink">
    <!-- Generator: sketchtool 40 (33762) - http://www.bohemiancoding.com/sketch -->
    <title>699C5140-51E3-4049-934D-5505B1C36E9C</title>
    <desc>Created with sketchtool.</desc>
    <defs>
        <rect id="path-1" x="0" y="0" width="24" height="24"></rect>
        <rect id="path-3" x="0" y="0" width="24" height="24" rx="12"></rect>
        <linearGradient x1="50%" y1="0%" x2="50%" y2="100%" id="linearGradient-5">
            <stop stop-color="#FFFFFF" offset="0%"></stop>
            <stop stop-color="#F6F4F4" offset="100%"></stop>
        </linearGradient>
    </defs>
    <g id="Page-1" stroke="none" stroke-width="1" fill="none" fill-rule="evenodd">
        <g id="snowbrush_sidebar&amp;menu" transform="translate(-838.000000, -8.000000)">
            <g id="nav-bar">
                <g id="add">
                    <g transform="translate(838.000000, 8.000000)">
                        <g id="ic-Insert-Copy-5" transform="translate(8.000000, 8.000000)">
                            <g id="Page-1">
                                <g id="Artboard">
                                    <g id="Group-5">
                                        <g id="ic-Insert-Clipped">
                                            <mask id="mask-2" fill="white">
                                                <use xlink:href="#path-1"></use>
                                            </mask>
                                            <g id="path-1"></g>
                                            <g id="ic-Insert" opacity="0" mask="url(#mask-2)" stroke="#979797" stroke-width="2" fill="#D8D8D8">
                                                <rect id="path-1" x="0" y="0" width="24" height="24"></rect>
                                            </g>
                                        </g>
                                        <g id="Rectangle-33-Clipped">
                                            <mask id="mask-4" fill="white">
                                                <use xlink:href="#path-3"></use>
                                            </mask>
                                            <g id="path-4"></g>
                                            <g id="Rectangle-33" mask="url(#mask-4)" stroke="#ACACAC" fill="url(#linearGradient-5)">
                                                <rect id="path-4" x="0" y="0" width="24" height="24" rx="12"></rect>
                                            </g>
                                        </g>
                                        <path d="M5,14 C6.1045695,14 7,13.1045695 7,12 C7,10.8954305 6.1045695,10 5,10 C3.8954305,10 3,10.8954305 3,12 C3,13.1045695 3.8954305,14 5,14 L5,14 Z M12,14 C13.1045695,14 14,13.1045695 14,12 C14,10.8954305 13.1045695,10 12,10 C10.8954305,10 10,10.8954305 10,12 C10,13.1045695 10.8954305,14 12,14 L12,14 Z M19,14 C20.1045695,14 21,13.1045695 21,12 C21,10.8954305 20.1045695,10 19,10 C17.8954305,10 17,10.8954305 17,12 C17,13.1045695 17.8954305,14 19,14 L19,14 Z" id="Combined-Shape" fill="#1E80E7"></path>
                                    </g>
                                </g>
                            </g>
                        </g>
                    </g>
                </g>
            </g>
        </g>
    </g>
</svg>