<?xml version="1.0" encoding="UTF-8" standalone="no"?>
<svg width="40px" height="40px" viewBox="0 0 40 40" version="1.1" xmlns="http://www.w3.org/2000/svg" xmlns:xlink="http://www.w3.org/1999/xlink">
    <!-- Generator: sketchtool 40 (33762) - http://www.bohemiancoding.com/sketch -->
    <title>6E51EBF1-0488-4B29-9E7D-F9323437EBD0</title>
    <desc>Created with sketchtool.</desc>
    <defs></defs>
    <g id="Page-1" stroke="none" stroke-width="1" fill="none" fill-rule="evenodd">
        <g id="snowbrush_sidebar&amp;menu" transform="translate(-582.000000, -8.000000)">
            <g id="nav-bar">
                <g id="relationship">
                    <g transform="translate(582.000000, 8.000000)">
                        <rect id="ic-relationship" x="8" y="8" width="24" height="24"></rect>
                        <path d="M15,27 C15,25.3431458 16.3431458,24 18,24 C19.6568542,24 21,25.3431458 21,27 C21,28.6568542 19.6568542,30 18,30 C16.3431458,30 15,28.6568542 15,27 Z M19,27 C19,26.4477153 18.5522847,26 18,26 C17.4477153,26 17,26.4477153 17,27 C17,27.5522847 17.4477153,28 18,28 C18.5522847,28 19,27.5522847 19,27 Z M24,14 L24,16 L30,13 L24,10 L24,12 L13.5,12 L13.5,14 L24,14 L24,14 Z M19.5,26 L26.5,26 L26.5,28 L19.5,28 L19.5,26 Z M13.5,19 L26.5,19 L26.5,21 L13.5,21 L13.5,19 Z M13.5,19 C12.1192881,19 11,17.8807119 11,16.5 C11,15.1192881 12.1192881,14 13.5,14 L13.5,13 L13.5,12 C11.0147186,12 9,14.0147186 9,16.5 C9,18.9852814 11.0147186,21 13.5,21 L13.5,20 L13.5,19 Z M26.5,21 C27.8807119,21 29,22.1192881 29,23.5 C29,24.8807119 27.8807119,26 26.5,26 L26.5,27 L26.5,28 C28.9852814,28 31,25.9852814 31,23.5 C31,21.0147186 28.9852814,19 26.5,19 L26.5,20 L26.5,21 Z" id="Combined-Shape" fill="#2083EA"></path>
                    </g>
                </g>
            </g>
        </g>
    </g>
</svg>