<?xml version="1.0" encoding="UTF-8" standalone="no"?>
<svg width="40px" height="40px" viewBox="0 0 40 40" version="1.1" xmlns="http://www.w3.org/2000/svg" xmlns:xlink="http://www.w3.org/1999/xlink">
    <!-- Generator: sketchtool 40 (33762) - http://www.bohemiancoding.com/sketch -->
    <title>A272CA21-AFF7-48F3-A358-6093855A27C2</title>
    <desc>Created with sketchtool.</desc>
    <defs>
        <linearGradient x1="50%" y1="0%" x2="50%" y2="100%" id="linearGradient-1">
            <stop stop-color="#FFFFFF" offset="0%"></stop>
            <stop stop-color="#F6F4F4" offset="100%"></stop>
        </linearGradient>
        <path d="M9.5,12.0093689 C9.5,11.4519098 9.94463086,11 10.5008717,11 L24.4991283,11 C25.0518945,11 25.5,11.4433532 25.5,12.0093689 L25.5,13.9906311 C25.5,14.5480902 25.0553691,15 24.4991283,15 L10.5008717,15 C9.9481055,15 9.5,14.5566468 9.5,13.9906311 L9.5,12.0093689 Z M9.5,19.0093689 C9.5,18.4519098 9.94463086,18 10.5008717,18 L24.4991283,18 C25.0518945,18 25.5,18.4433532 25.5,19.0093689 L25.5,20.9906311 C25.5,21.5480902 25.0553691,22 24.4991283,22 L10.5008717,22 C9.9481055,22 9.5,21.5566468 9.5,20.9906311 L9.5,19.0093689 Z M9.5,26.0093689 C9.5,25.4519098 9.94463086,25 10.5008717,25 L24.4991283,25 C25.0518945,25 25.5,25.4433532 25.5,26.0093689 L25.5,27.9906311 C25.5,28.5480902 25.0553691,29 24.4991283,29 L10.5008717,29 C9.9481055,29 9.5,28.5566468 9.5,27.9906311 L9.5,26.0093689 Z" id="path-2"></path>
        <mask id="mask-3" maskContentUnits="userSpaceOnUse" maskUnits="objectBoundingBox" x="0" y="0" width="16" height="18" fill="white">
            <use xlink:href="#path-2"></use>
        </mask>
    </defs>
    <g id="Page-1" stroke="none" stroke-width="1" fill="none" fill-rule="evenodd">
        <g id="snowbrush_sidebar&amp;menu" transform="translate(-710.000000, -8.000000)">
            <g id="nav-bar">
                <g id="summary">
                    <g transform="translate(710.000000, 8.000000)">
                        <rect id="ic-summary" x="9" y="8" width="24" height="24"></rect>
                        <use id="Combined-Shape" stroke="#ACACAC" mask="url(#mask-3)" fill="url(#linearGradient-1)" xlink:href="#path-2"></use>
                        <path d="M25.610546,8.29998779 L25.610546,9.87701217 L27.0123455,9.87701217 C28.1137593,9.87701217 28.6644663,10.4777834 28.6644663,11.72939 L28.6644663,16.9360737 C28.6644663,18.4380017 29.3403339,19.4643191 30.7171012,19.9899939 C29.3403339,20.5407008 28.6644663,21.5670183 28.6644663,23.0439141 L28.6644663,28.2756299 C28.6644663,29.4771723 28.1137593,30.1029756 27.0123455,30.1029756 L25.610546,30.1029756 L25.610546,31.68 L27.3377632,31.68 C28.3390485,31.68 29.1400768,31.3545823 29.7158158,30.7037468 C30.2414906,30.1029756 30.5168441,29.2769152 30.5168441,28.2255656 L30.5168441,23.1190105 C30.5168441,22.3680465 30.6670369,21.8173396 30.9924546,21.4668897 C31.3429045,21.0663756 31.9687078,20.8410864 32.8948967,20.8160543 L32.8948967,19.1639335 C31.9687078,19.1138692 31.3429045,18.9136122 30.9924546,18.5381302 C30.6670369,18.1626482 30.5168441,17.6119413 30.5168441,16.8609773 L30.5168441,11.7794543 C30.5168441,10.7281047 30.2414906,9.87701217 29.7158158,9.27624098 C29.1400768,8.62540552 28.3390485,8.29998779 27.3377632,8.29998779 L25.610546,8.29998779 Z" id="}" fill="#2083EA"></path>
                    </g>
                </g>
            </g>
        </g>
    </g>
</svg>