<?xml version="1.0" encoding="UTF-8" standalone="no"?>
<svg width="40px" height="40px" viewBox="0 0 40 40" version="1.1" xmlns="http://www.w3.org/2000/svg" xmlns:xlink="http://www.w3.org/1999/xlink">
    <!-- Generator: sketchtool 40 (33762) - http://www.bohemiancoding.com/sketch -->
    <title>4B9F90C6-9F5F-4FC1-ABE1-14A96172A9BB</title>
    <desc>Created with sketchtool.</desc>
    <defs>
        <linearGradient x1="50%" y1="0%" x2="50%" y2="100%" id="linearGradient-1">
            <stop stop-color="#FFFFFF" offset="0%"></stop>
            <stop stop-color="#F6F4F4" offset="100%"></stop>
        </linearGradient>
        <rect id="path-2" x="12" y="10" width="20" height="8" rx="1"></rect>
        <mask id="mask-3" maskContentUnits="userSpaceOnUse" maskUnits="objectBoundingBox" x="0" y="0" width="20" height="8" fill="white">
            <use xlink:href="#path-2"></use>
        </mask>
        <linearGradient x1="50%" y1="0%" x2="50%" y2="100%" id="linearGradient-4">
            <stop stop-color="#2689F1" offset="0%"></stop>
            <stop stop-color="#1D7FE6" offset="100%"></stop>
        </linearGradient>
        <rect id="path-5" x="12" y="22" width="20" height="8" rx="1"></rect>
        <mask id="mask-6" maskContentUnits="userSpaceOnUse" maskUnits="objectBoundingBox" x="0" y="0" width="20" height="8" fill="white">
            <use xlink:href="#path-5"></use>
        </mask>
    </defs>
    <g id="Page-1" stroke="none" stroke-width="1" fill="none" fill-rule="evenodd">
        <g id="snowbrush_sidebar&amp;menu" transform="translate(-512.000000, -8.000000)">
            <g id="nav-bar">
                <g id="topic">
                    <g transform="translate(512.000000, 8.000000)">
                        <rect id="ic-topic" x="8" y="8" width="24" height="24"></rect>
                        <path d="M9,14 L12,14 L12,15 L9,15 L9,14 Z M9,26 L12,26 L12,27 L9,27 L9,26 Z M8,14 L9,14 L9,27 L8,27 L8,14 Z" id="Combined-Shape" fill="#ACACAC"></path>
                        <use id="Rectangle-57" stroke="#ACACAC" mask="url(#mask-3)" fill="url(#linearGradient-1)" xlink:href="#path-2"></use>
                        <use id="Rectangle-57-Copy" stroke="#1C69DA" mask="url(#mask-6)" fill="url(#linearGradient-4)" xlink:href="#path-5"></use>
                    </g>
                </g>
            </g>
        </g>
    </g>
</svg>